<svg xmlns="http://www.w3.org/2000/svg" viewBox="0 0 200.01 200"><defs><style>.cls-1{fill:#efefef;}.cls-2{fill:#1a191b;}</style></defs><g id="Calque_2" data-name="Calque 2"><g id="Calque_1-2" data-name="Calque 1"><circle class="cls-1" cx="100" cy="100" r="100"/><path class="cls-2" d="M39.55,50.55l3.92-4.15a3.82,3.82,0,0,1,5.34-.14,3.54,3.54,0,0,1,1.09,2v0h0a4.54,4.54,0,0,1,2-.45,5,5,0,0,1,3.68,1.39,5.23,5.23,0,0,1,.24,7.29l-4.73,5Zm8-.31a1.82,1.82,0,0,0-2.64-2.5l-2.57,2.71L45,53Zm6.88,4.91a3.27,3.27,0,0,0-.19-4.51,3.19,3.19,0,0,0-4.48.09l-3.36,3.55,4.67,4.42Z"/><path class="cls-2" d="M62.66,38.09,64.26,37l5.67,8.51-1.6,1.06-.65-1a5.49,5.49,0,0,1-2.08,3.07,5.37,5.37,0,0,1-4,.83,5.38,5.38,0,0,1-4.21-6.32,5.33,5.33,0,0,1,2.3-3.38,5.46,5.46,0,0,1,3.64-.74Zm2.84,4.25a3.44,3.44,0,1,0-.94,4.78A3.45,3.45,0,0,0,65.5,42.34Z"/><path class="cls-2" d="M78.38,38.58a2.68,2.68,0,0,1,.17,1.67,3.23,3.23,0,0,1-.83,1.56,4.48,4.48,0,0,1-1.54,1,5.9,5.9,0,0,1-1,.31A6.86,6.86,0,0,1,71.78,43l.6-1.68a4.36,4.36,0,0,0,3.06,0,3,3,0,0,0,1-.68,1.26,1.26,0,0,0,.29-1.38c-.26-.64-1-.8-2.35-.49a11.62,11.62,0,0,1-2.47.28,2.61,2.61,0,0,1-2.24-1.65,2.76,2.76,0,0,1-.15-1.63,3.08,3.08,0,0,1,.79-1.4,4.27,4.27,0,0,1,1.48-1c.23-.09.49-.17.72-.25a5.92,5.92,0,0,1,3,.08L75,34.8a3.84,3.84,0,0,0-2.47.06,2.59,2.59,0,0,0-.92.63,1.2,1.2,0,0,0-.28,1.23c.25.62.89.74,2.25.49A13.8,13.8,0,0,1,76,36.93a2.92,2.92,0,0,1,1.33.39A2.68,2.68,0,0,1,78.38,38.58Z"/><path class="cls-2" d="M89.83,34l-7.69,1.74v0a3.26,3.26,0,0,0,3.56,2.26,3.86,3.86,0,0,0,2.2-1.59l1.78.58a6.15,6.15,0,0,1-1.08,1.41,5.78,5.78,0,0,1-2.46,1.33A4.57,4.57,0,0,1,82.43,39a5.25,5.25,0,0,1-2.06-2.83,3.81,3.81,0,0,1-.13-.45,6,6,0,0,1-.13-1.2,5.45,5.45,0,0,1,.69-2.7,4.67,4.67,0,0,1,6.77-1.53,5.11,5.11,0,0,1,1.79,2.14A6.17,6.17,0,0,1,89.83,34Zm-2.31-1.13,0,0a3.07,3.07,0,0,0-3.25-1.53A3.14,3.14,0,0,0,82,34.11v0ZM83.85,25.6l1.48-.33L84.05,28l-.78.18Z"/><path class="cls-2" d="M108,28.29l1.92.13-.71,10.2-1.92-.13.09-1.18a5.53,5.53,0,0,1-3.53,1.16,5.33,5.33,0,1,1,.74-10.64A5.48,5.48,0,0,1,108,29.47Zm-.35,5.1A3.44,3.44,0,1,0,104,36.6,3.46,3.46,0,0,0,107.68,33.39ZM104,23.93l1,2.46-.8-.05-1.68-2.51Z"/><path class="cls-2" d="M129.51,45.54,134.69,34l-7.45,4.24-1.78-8.38L120.28,41.4l-1.81-.81L125,26.09l1.92.86,1.73,8.21L135.88,31l1.94.87-6.5,14.5Z"/><path class="cls-2" d="M145.69,51.07a5.38,5.38,0,0,1-7.53.82,5.35,5.35,0,1,1,6.71-8.33,5.33,5.33,0,0,1,.82,7.51Zm-1.49-1.2a3.44,3.44,0,1,0-4.83.52A3.42,3.42,0,0,0,144.2,49.87Z"/><path class="cls-2" d="M154.8,61.07l-4.25,3.48-1.21-1.49,4.24-3.48a3,3,0,1,0-3.82-4.66l-4.24,3.48-1.22-1.48,7.9-6.48,1.22,1.48-.76.63a5,5,0,0,1,2.83,1.58,4.9,4.9,0,0,1,1.11,3.61A5,5,0,0,1,154.8,61.07Z"/><path class="cls-2" d="M155.29,65.93l4.35-2.47-.75-1.32,1.6-.9.74,1.32,3.44-2,1,1.67-3.44,2L163.73,67l-1.59.9-1.55-2.74-4.31,2.44a1.63,1.63,0,0,0-.65,2.12l.84,1.49-1.35,1.33-1.11-2A3.38,3.38,0,0,1,155.29,65.93Z"/><path class="cls-2" d="M164.48,82.69a5.38,5.38,0,0,1-4.11-.23,5.33,5.33,0,0,1-2.71-3,5.51,5.51,0,0,1,.18-3.71l-6.63,2.35-.64-1.81,15.16-5.36.64,1.81-1.12.4a5.43,5.43,0,0,1,2.47,2.77,5.27,5.27,0,0,1-.19,4.07A5.37,5.37,0,0,1,164.48,82.69Zm-.64-1.81a3.44,3.44,0,1,0-4.41-2.09A3.45,3.45,0,0,0,163.84,80.88Z"/><path class="cls-2" d="M166,95.44l-1.08-7.81h0A3.25,3.25,0,0,0,162.33,91a3.85,3.85,0,0,0,1.4,2.33L163,95a6.19,6.19,0,0,1-1.31-1.19,5.8,5.8,0,0,1-1.12-2.57,4.55,4.55,0,0,1,1.07-3.64,5.23,5.23,0,0,1,3-1.81,2.34,2.34,0,0,1,.46-.09,6.1,6.1,0,0,1,1.21,0,5.4,5.4,0,0,1,2.63.92,4.7,4.7,0,0,1,2,3.22,4.76,4.76,0,0,1-1.05,3.66,5.24,5.24,0,0,1-2.29,1.6A6.22,6.22,0,0,1,166,95.44Zm1.31-2.21.05,0a3.1,3.1,0,0,0,1.8-3.11,3.14,3.14,0,0,0-2.58-2.5l0,0Z"/><path class="cls-2" d="M161.3,98.41l16.38-.26,0,1.92-16.38.26Z"/><path class="cls-2" d="M161.18,104l16.32,1.42-.17,1.91L161,106Z"/><path class="cls-2" d="M170.55,111.71l-.35,1.89-10-1.83.34-1.89Zm2.93.22a1.25,1.25,0,0,1,1,1.48,1.23,1.23,0,0,1-1.45,1,1.26,1.26,0,1,1,.45-2.48Z"/><path class="cls-2" d="M161,125.48l2.52-7.46-.05,0a3.24,3.24,0,0,0-3.78,1.86,3.84,3.84,0,0,0,.22,2.71l-1.42,1.22a5.4,5.4,0,0,1-.5-4.46,4.57,4.57,0,0,1,2.58-2.78,5.28,5.28,0,0,1,3.49-.28,3.81,3.81,0,0,1,.45.13,5.77,5.77,0,0,1,1.1.51,5.39,5.39,0,0,1,1.94,2,4.65,4.65,0,0,1,.36,3.77,4.72,4.72,0,0,1-2.58,2.8,5.16,5.16,0,0,1-2.75.42A6,6,0,0,1,161,125.48Zm2.16-1.39h0a3.11,3.11,0,0,0,3-2,3.15,3.15,0,0,0-1.19-3.4l0,0Z"/><path class="cls-2" d="M162.58,132.24a6.26,6.26,0,0,1-.6,3.9l-1.48-1.31a3.16,3.16,0,0,0-1.22-4.31L154.45,128l.89-1.7L164.4,131l-.89,1.7Z"/><path class="cls-2" d="M155.92,144.43l-1.21,1.49-7.91-6.48L148,138Zm2.46,1.61a1.26,1.26,0,1,1-1.79.18A1.27,1.27,0,0,1,158.38,146Z"/><path class="cls-2" d="M140.55,153.17l-3.64-4.1,1.43-1.28,3.65,4.1a3,3,0,1,0,4.5-4l-3.65-4.1,1.44-1.28,6.79,7.64-1.43,1.28-.66-.74a5.11,5.11,0,0,1-1.46,2.89,4.89,4.89,0,0,1-7-.41Z"/><path class="cls-2" d="M124.51,159.51a2.66,2.66,0,0,1-.26-1.66,3.26,3.26,0,0,1,.73-1.6,4.58,4.58,0,0,1,1.48-1.14,5.56,5.56,0,0,1,1-.36,6.75,6.75,0,0,1,3.4,0l-.51,1.71a4.31,4.31,0,0,0-3.06.15,2.9,2.9,0,0,0-1,.73,1.29,1.29,0,0,0-.22,1.4c.31.62,1,.74,2.39.35a11.66,11.66,0,0,1,2.44-.42,2.64,2.64,0,0,1,2.33,1.52,2.81,2.81,0,0,1,.25,1.62,3.06,3.06,0,0,1-.72,1.44,4,4,0,0,1-1.42,1.11c-.22.11-.47.21-.7.3a5.86,5.86,0,0,1-3,.09l.43-1.65a3.84,3.84,0,0,0,2.46-.2,2.57,2.57,0,0,0,.89-.68,1.25,1.25,0,0,0,.21-1.25c-.29-.6-.93-.68-2.28-.35A13.67,13.67,0,0,1,127,161a2.79,2.79,0,0,1-1.35-.31A2.73,2.73,0,0,1,124.51,159.51Z"/><path class="cls-2" d="M112.27,165.45a5.35,5.35,0,0,1,.53-4.08,5.27,5.27,0,0,1,3.22-2.51,5.41,5.41,0,0,1,4.07.51,5.35,5.35,0,0,1,2.52,3.24,5.41,5.41,0,0,1-.51,4.07,5.32,5.32,0,0,1-3.25,2.49,5.27,5.27,0,0,1-4-.48A5.34,5.34,0,0,1,112.27,165.45Zm1.86-.51a3.43,3.43,0,1,0,2.4-4.23A3.41,3.41,0,0,0,114.13,164.94Z"/><path class="cls-2" d="M108.49,165.27l.35,5.83-1.92.12-.35-5.84a2.81,2.81,0,0,0-5.61.34l.35,5.84-1.91.11L99,165.84a4.57,4.57,0,0,1,1.21-3.36,4.87,4.87,0,0,1,6.66-.4A4.55,4.55,0,0,1,108.49,165.27Z"/><path class="cls-2" d="M93.9,164.47l-.6,5,1.51.18-.22,1.82-1.51-.18-.47,3.92-1.91-.23.47-3.92-3.12-.38.22-1.82,3.12.38.6-4.92a1.64,1.64,0,0,0-1.32-1.78l-1.7-.2-.27-1.88,2.24.27A3.38,3.38,0,0,1,93.9,164.47Z"/><path class="cls-2" d="M75.52,162.48l1.59-5.25,1.84.56L77.35,163a3,3,0,1,0,5.77,1.75l1.59-5.26,1.84.56L81.8,175.77,80,175.21,82,168.38a5,5,0,0,1-3.22.25,4.87,4.87,0,0,1-3.29-6.15Z"/><path class="cls-2" d="M58,152.06a5.37,5.37,0,0,1,7.43-1.45,5.35,5.35,0,1,1-6,8.87A5.34,5.34,0,0,1,58,152.06Zm1.59,1.07a3.44,3.44,0,0,0,5.7,3.85,3.44,3.44,0,1,0-5.7-3.85Z"/><path class="cls-2" d="M43.12,153.48l1.62-1L46,153.68a1.61,1.61,0,0,0,2.18-.08l1.91-2-2.28-2.17,1.26-1.32,2.28,2.17,5.79-6.07,1.39,1.32-5.79,6.07,1.1,1L52.55,154l-1.09-1-2,2a3.34,3.34,0,0,1-4.76.08Z"/><path class="cls-2" d="M35.84,143.79l-5.24-8.57,1.66-1,4.19,6.86,3.18-1.94-2.31-3.77,1.68-1,2.31,3.77,7-4.3,1,1.71Z"/><path class="cls-2" d="M34.64,127.55A6.24,6.24,0,0,1,32,124.61L34,124.3a3.17,3.17,0,0,0,4.1,1.8l5-2.13.75,1.77-9.42,4L33.68,128Z"/><path class="cls-2" d="M29.09,113.16l-.45-1.86,10-2.37L39,110.8l-1.15.28a5.17,5.17,0,0,1,1.54,7.06A5.39,5.39,0,0,1,32,119.9a5.41,5.41,0,0,1-2.38-3.34,5.52,5.52,0,0,1,.58-3.67Zm5-1.18a3.44,3.44,0,1,0,4.16,2.55A3.46,3.46,0,0,0,34.06,112Z"/><path class="cls-2" d="M32.56,95.83l5.49-.1,0,1.92-5.49.09a3,3,0,1,0,.1,6l5.49-.09,0,1.92L28,105.77l0-1.92,1,0a5.12,5.12,0,0,1-1.23-3,4.87,4.87,0,0,1,4.85-5Z"/><path class="cls-2" d="M38.07,83.43a6.76,6.76,0,0,1,.54.66,5.26,5.26,0,0,1,.83,4,5.33,5.33,0,0,1-2.19,3.46,5.4,5.4,0,0,1-7.47-1.37,5.42,5.42,0,0,1,1.36-7.44,6.59,6.59,0,0,1,.71-.42L32.7,84a3.44,3.44,0,1,0,4.9,3.71,3.43,3.43,0,0,0-.93-3Z"/><path class="cls-2" d="M39.69,71.26l-2.85,7.35h0a3.23,3.23,0,0,0,3.86-1.68,3.86,3.86,0,0,0-.09-2.72l1.47-1.15a5.75,5.75,0,0,1,.57,1.68,5.82,5.82,0,0,1-.26,2.79,4.59,4.59,0,0,1-2.71,2.66,5.25,5.25,0,0,1-3.5.13,2.28,2.28,0,0,1-.44-.15,5,5,0,0,1-1.08-.56,5.29,5.29,0,0,1-1.85-2.08,4.67,4.67,0,0,1,2.51-6.47,5.22,5.22,0,0,1,2.77-.29A6.17,6.17,0,0,1,39.69,71.26Zm-2.23,1.29h-.05a3.08,3.08,0,0,0-3.08,1.85,3.15,3.15,0,0,0,1,3.44l0,0Z"/></g></g></svg>