<?xml version="1.0" encoding="UTF-8"?><svg id="Calque_2" xmlns="http://www.w3.org/2000/svg" width="54.12" height="57.12" viewBox="0 0 153.4 161.91"><g id="Calque_1-2"><path d="m48.37,9.76c2.96-1.19,5.13-.07,5.96,1.99.6,1.5.38,3.35-1.38,4.67l4.95,3.81-2.85,1.15-4.64-3.7-1.16.47,1.93,4.79-2.47.99-4.94-12.3,4.62-1.85Zm.73,2.08l-2.06.83,1.45,3.61,2.06-.83c1.37-.55,1.7-1.52,1.26-2.63-.44-1.09-1.33-1.53-2.71-.98Z" style="fill:#fff;"/><path d="m69.58,6.72l-4.98.74.49,3.29,4.42-.66.31,2.09-4.42.66.52,3.48,4.98-.74.32,2.14-7.61,1.13-1.95-13.14,7.61-1.13.32,2.14Zm-2.88-6.72l.32,2.14-4.03,2.62-.28-1.88,3.99-2.88Z" style="fill:#fff;"/><path d="m85.7,15.63l-5.26-.5-1.11,2.43-2.78-.27,6.01-12.76,3.08.3,3.48,13.67-2.8-.27-.63-2.6Zm-1.89-7.89l-2.44,5.34,3.82.37-1.38-5.7Z" style="fill:#fff;"/><path d="m101.12,8.32l-3.61,10.55,4.13,1.41-.68,2-6.65-2.28,4.29-12.55,2.52.86Z" style="fill:#fff;"/><path d="m110.61,12.23l2.36,1.22-6.09,11.78-2.36-1.22,6.09-11.78Z" style="fill:#fff;"/><path d="m115.07,30.73c-2.19-1.67-3-4.11-1.51-6.13l2.26,1.73c-.59.89-.45,1.88.53,2.63,1,.76,1.99.68,2.56-.07,1.74-2.28-4.74-5.06-1.81-8.86,1.45-1.9,3.87-1.87,6.04-.21,2.16,1.65,2.79,3.88,1.48,5.89l-2.32-1.78c.49-.73.34-1.7-.55-2.41-.81-.66-1.74-.73-2.39.13-1.61,2.11,4.69,5.07,1.85,8.78-1.27,1.66-3.74,2.14-6.14.3Z" style="fill:#fff;"/><path d="m130.4,42.75l-3.23-4.18-2.53.85-1.71-2.21,13.42-4.35,1.9,2.45-7.59,11.9-1.72-2.22,1.46-2.24Zm4.46-6.79l-5.56,1.88,2.35,3.04,3.21-4.91Z" style="fill:#fff;"/><path d="m145.24,46.46l3.8,8.95-1.98.84-1.38-3.25-10.23,4.35-1.04-2.45,10.23-4.35-1.38-3.25,1.98-.84Z" style="fill:#fff;"/><path d="m150.89,61.99l.61,2.59-12.91,3.04-.61-2.59,12.91-3.04Z" style="fill:#fff;"/><path d="m139.81,79.48c-.08-3.74,2.66-6.86,6.65-6.95,3.97-.09,6.85,2.91,6.93,6.65.08,3.78-2.67,6.84-6.64,6.93-3.99.09-6.87-2.87-6.95-6.63Zm2.37-.05c.05,2.39,1.82,4.01,4.51,3.95,2.7-.06,4.35-1.75,4.3-4.14-.05-2.41-1.78-4.03-4.48-3.97-2.7.06-4.39,1.75-4.34,4.16Z" style="fill:#fff;"/><path d="m148.74,107.37l-12.77-3.65.73-2.56,10.4-3.29-8.75-2.5.73-2.56,12.77,3.65-.73,2.56-10.42,3.29,8.77,2.5-.73,2.56Z" style="fill:#fff;"/><path d="m130.63,113.68c1.43-2.35,3.77-3.42,5.93-2.15l-1.48,2.44c-.95-.49-1.92-.25-2.56.8-.65,1.07-.47,2.05.34,2.54,2.45,1.49,4.53-5.25,8.62-2.74,2.05,1.24,2.27,3.65.85,5.99-1.41,2.32-3.56,3.19-5.7,2.09l1.52-2.5c.78.41,1.73.16,2.33-.8.58-.87.54-1.81-.38-2.37-2.27-1.38-4.54,5.2-8.54,2.77-1.79-1.09-2.52-3.49-.95-6.07Z" style="fill:#fff;"/><path d="m125.55,132.77l-6.18,5.17-1.44-1.72,6.18-5.17,1.44,1.72Z" style="fill:#fff;"/><path d="m103.42,152.58c-2.99,1.12-5.13-.04-5.91-2.12-.57-1.51-.31-3.36,1.49-4.64l-4.86-3.92,2.88-1.08,4.56,3.81,1.17-.44-1.82-4.84,2.49-.94,4.67,12.42-4.66,1.75Zm-.69-2.1l2.08-.78-1.37-3.65-2.08.78c-1.39.52-1.74,1.48-1.32,2.61.41,1.1,1.3,1.56,2.69,1.04Z" style="fill:#fff;"/><path d="m82.17,155.13l4.99-.63-.42-3.3-4.43.56-.26-2.09,4.43-.56-.44-3.49-4.99.63-.27-2.15,7.63-.96,1.66,13.17-7.63.96-.27-2.15Zm2.73,6.78l-.27-2.15,4.08-2.53.24,1.88-4.05,2.79Z" style="fill:#fff;"/><path d="m66.25,145.86l5.25.62,1.17-2.41,2.77.33-6.31,12.63-3.08-.37-3.17-13.76,2.79.33.57,2.61Zm1.72,7.94l2.56-5.29-3.81-.45,1.25,5.74Z" style="fill:#fff;"/><path d="m50.65,152.83l3.85-10.47-4.1-1.51.73-1.98,6.6,2.43-4.58,12.45-2.5-.92Z" style="fill:#fff;"/><path d="m41.28,148.71l-2.33-1.27,6.35-11.64,2.33,1.27-6.35,11.64Z" style="fill:#fff;"/><path d="m37.23,130.11c2.15,1.72,2.91,4.18,1.38,6.16l-2.23-1.78c.6-.88.5-1.87-.47-2.64-.98-.78-1.97-.73-2.57.02-1.79,2.24,4.63,5.16,1.61,8.91-1.5,1.87-3.91,1.79-6.05.08-2.12-1.7-2.71-3.94-1.35-5.92l2.29,1.83c-.5.72-.38,1.69.5,2.42.79.68,1.72.77,2.4-.08,1.66-2.08-4.58-5.17-1.66-8.82,1.31-1.63,3.79-2.06,6.15-.17Z" style="fill:#fff;"/><path d="m22.18,117.76l3.14,4.25,2.55-.8,1.66,2.25-13.52,4.05-1.84-2.49,7.85-11.73,1.67,2.26-1.51,2.21Zm-4.61,6.69l5.6-1.75-2.28-3.09-3.32,4.84Z" style="fill:#fff;"/><path d="m7.41,113.71l-3.6-9.04,2-.79,1.31,3.28,10.33-4.12.98,2.47-10.33,4.12,1.31,3.28-2,.79Z" style="fill:#fff;"/><path d="m2.13,98.08l-.55-2.6,12.97-2.75.55,2.6-12.97,2.75Z" style="fill:#fff;"/><path d="m13.58,80.71c-.03,3.74-2.87,6.78-6.86,6.74C2.75,87.41-.03,84.33,0,80.58c.03-3.78,2.87-6.76,6.84-6.72,3.99.04,6.77,3.08,6.74,6.84Zm-2.37-.02c.02-2.39-1.69-4.06-4.39-4.09-2.7-.02-4.4,1.61-4.42,4.01-.02,2.41,1.65,4.08,4.35,4.1,2.7.02,4.44-1.61,4.46-4.03Z" style="fill:#fff;"/><path d="m5.28,52.74l12.68,3.94-.79,2.54-10.48,3.05,8.69,2.7-.79,2.54-12.68-3.94.79-2.54,10.49-3.05-8.71-2.7.79-2.54Z" style="fill:#fff;"/><path d="m23.52,46.84c-1.48,2.32-3.84,3.34-5.98,2.02l1.53-2.4c.94.51,1.91.29,2.57-.75.67-1.06.51-2.04-.29-2.55-2.42-1.54-4.64,5.15-8.68,2.55-2.02-1.29-2.19-3.7-.72-6,1.46-2.29,3.63-3.11,5.74-1.97l-1.57,2.46c-.77-.42-1.72-.2-2.35.75-.59.86-.58,1.79.33,2.37,2.24,1.43,4.65-5.1,8.59-2.58,1.76,1.12,2.45,3.55.82,6.09Z" style="fill:#fff;"/><path d="m29.02,27.87l6.29-5.03,1.4,1.75-6.29,5.03-1.4-1.75Z" style="fill:#fff;"/></g></svg>